<svg width="203" height="85" viewBox="0 0 203 85" fill="none" xmlns="http://www.w3.org/2000/svg">
<g clip-path="url(#clip0_176_18)">
<path d="M150.582 41.9276C150.814 41.6651 150.945 41.3302 150.952 40.9818C150.953 40.8058 150.915 40.6318 150.84 40.4723C150.764 40.3128 150.654 40.1718 150.516 40.0596C150.17 39.7884 149.734 39.6536 149.293 39.6813H148.334V42.3768H149.293C149.901 42.3768 150.33 42.2271 150.582 41.9276Z" fill="white"/>
<path d="M151.048 45.8998C150.729 45.6462 150.25 45.5215 149.609 45.5215H148.338V48.3825H149.681C150.37 48.3825 150.849 48.2521 151.12 47.9913C151.256 47.8575 151.363 47.697 151.434 47.5201C151.504 47.3431 151.536 47.1537 151.527 46.9638C151.538 46.7618 151.499 46.5603 151.416 46.3754C151.333 46.1906 151.207 46.0277 151.048 45.8998Z" fill="white"/>
<path d="M161.92 19.1954C157.347 19.1942 152.856 20.3994 148.914 22.6861C144.971 24.9728 141.722 28.2578 139.501 32.2003V15.2188H129.296L118.091 29.1909L106.888 15.2188H96.6828V22.1984C95.673 20.9923 94.5086 19.9208 93.2188 19.0106C91.1347 17.5559 88.7783 16.5242 86.2863 15.9754C83.6601 15.3664 80.797 15.332 77.697 15.8722C74.597 16.4125 71.9184 17.4106 69.6614 18.8665C67.5088 20.2221 65.6517 21.9868 64.1982 24.0577C62.833 26.0193 61.8702 28.2254 61.3642 30.5516C61.3249 30.7364 61.2922 30.9213 61.2574 31.1061C61.0851 30.8912 60.9086 30.6762 60.7211 30.4613C59.5615 29.174 58.1534 28.1276 56.579 27.3831C54.9013 26.6057 53.0835 26.1651 51.2314 26.0869C47.0022 25.9842 42.8897 27.4597 39.7165 30.2184C38.3518 31.4554 37.2499 32.9474 36.4748 34.6078C35.7505 36.1804 35.3447 37.8773 35.2801 39.6033C35.2106 41.2898 35.4749 42.9735 36.0584 44.5602C36.2531 45.0819 36.481 45.5909 36.7407 46.0843L36.647 46.0542C35.6608 45.7928 34.628 45.751 33.6233 45.9316C34.1208 45.074 34.3788 44.1016 34.3711 43.1136C34.3618 41.98 34.0522 40.8684 33.4729 39.8892C33.0537 39.1658 32.472 38.5467 31.7725 38.0793C31.0432 37.6004 30.2139 37.2896 29.3461 37.17C28.3484 37.0402 27.3352 37.089 26.3551 37.3141C25.1444 37.5953 23.9854 38.0601 22.9194 38.6919L15.4375 42.9416L27.1682 62.9819L35.1428 58.4421C36.3495 57.7875 37.4435 56.9488 38.3845 55.9572C39.1005 55.1969 39.6523 54.301 40.0064 53.324C40.2956 52.477 40.3741 51.5739 40.2353 50.6908C40.2092 50.5296 40.1765 50.3705 40.1394 50.2136C40.9755 50.8923 41.8911 51.4696 42.8666 51.9332C44.5417 52.7157 46.3582 53.1607 48.2099 53.2423C50.3088 53.3227 52.4022 52.9797 54.3619 52.2342C56.3479 51.5595 58.1729 50.4915 59.7248 49.0958C61.0884 47.86 62.1896 46.3695 62.9643 44.7107C63.1562 44.2894 63.3248 43.8645 63.4701 43.436C63.5638 43.5929 63.6554 43.752 63.7557 43.9089C65.0354 45.9291 66.7049 47.6819 68.6695 49.0679C70.7527 50.5238 73.1095 51.5557 75.602 52.103C78.2282 52.7106 81.0913 52.7457 84.1913 52.2084C87.2913 51.671 89.9705 50.6729 92.229 49.214C93.902 48.1518 95.4034 46.8475 96.6828 45.3448V51.5893H109.061V34.5282L118.091 43.6209L127.123 34.5282V51.5893H137.306C138.643 56.0958 141.227 60.146 144.767 63.2864C148.308 66.4268 152.665 68.5333 157.351 69.3699C162.037 70.2065 166.866 69.7403 171.299 68.0234C175.731 66.3064 179.591 63.4067 182.447 59.6488C185.302 55.891 187.04 51.4235 187.466 46.7468C187.892 42.07 186.989 37.3687 184.858 33.1694C182.727 28.9701 179.453 25.4386 175.402 22.9706C171.35 20.5025 166.682 19.1953 161.92 19.1954ZM28.3062 45.3771C28.2234 45.8736 27.8201 46.3315 27.1028 46.7399L26.0608 47.3332L24.2535 44.2464L25.2956 43.6531C25.9213 43.2963 26.4924 43.1673 26.996 43.2683C27.2261 43.3069 27.4445 43.3956 27.6353 43.528C27.8261 43.6604 27.9846 43.8331 28.0991 44.0336C28.3246 44.444 28.3978 44.9191 28.3062 45.3771ZM33.5601 52.7414C33.4249 53.2165 32.9344 53.6959 32.1082 54.1666L30.5822 55.0393L28.6507 51.7398L30.0938 50.9186C30.8656 50.4887 31.5327 50.2995 32.082 50.3791C32.3501 50.4214 32.604 50.5262 32.8228 50.6847C33.0416 50.8432 33.2188 51.0509 33.3399 51.2905C33.478 51.5035 33.5691 51.7428 33.607 51.9928C33.6449 52.2428 33.629 52.4979 33.5601 52.7414ZM54.1461 42.0345C53.9424 42.6201 53.6172 43.1574 53.1913 43.6123C52.7297 44.081 52.1665 44.4406 51.5439 44.6639C50.9213 44.8873 50.2555 44.9687 49.5964 44.902C48.9743 44.8239 48.3758 44.6181 47.8393 44.298C47.2823 43.9649 46.7935 43.5318 46.3983 43.0211C45.5464 41.9122 45.0534 40.5758 44.9834 39.1863C44.9537 38.5447 45.0454 37.9032 45.2538 37.2947C45.4568 36.7099 45.7812 36.1733 46.2064 35.7191C46.6682 35.2507 47.2315 34.8915 47.854 34.6681C48.4765 34.4448 49.1423 34.3631 49.8013 34.4294C50.4239 34.5067 51.0232 34.7117 51.5606 35.0312C52.1155 35.3663 52.6032 35.7991 52.9994 36.3081C53.8537 37.4167 54.3476 38.7543 54.4164 40.145C54.4451 40.7859 54.3535 41.4265 54.1461 42.0345ZM87.1975 35.8008C87.0816 36.6781 86.8015 37.5265 86.3713 38.3029C85.9546 39.0487 85.3843 39.7004 84.697 40.216C83.9566 40.7429 83.1048 41.0978 82.2056 41.2541C81.3063 41.4105 80.3828 41.3642 79.5042 41.1188C78.679 40.8666 77.9164 40.447 77.2653 39.8871C76.5926 39.3013 76.0354 38.5981 75.6216 37.8128C74.7321 36.1079 74.3871 34.1775 74.6318 32.2755C74.7474 31.3981 75.0276 30.5497 75.4581 29.7734C75.8747 29.0276 76.445 28.3759 77.1323 27.8603C77.8728 27.3334 78.7246 26.9785 79.6238 26.8222C80.5231 26.6658 81.4466 26.7121 82.3252 26.9575C83.1499 27.2118 83.9123 27.6319 84.5641 28.1913C85.2372 28.7754 85.7939 29.4781 86.2056 30.2635C87.0981 31.9674 87.4455 33.8981 87.2019 35.8008H87.1975ZM155.485 48.855C155.274 49.396 154.932 49.8784 154.491 50.2609C153.965 50.702 153.353 51.032 152.692 51.2303C151.816 51.4917 150.902 51.6129 149.987 51.5893H143.926V36.2758H149.61C150.434 36.2609 151.255 36.3725 152.045 36.6069C152.675 36.7969 153.266 37.0968 153.789 37.4925C154.238 37.8374 154.603 38.2784 154.855 38.7822C155.094 39.2684 155.217 39.8023 155.214 40.3428C155.219 41.0843 155.025 41.8138 154.652 42.458C154.275 43.1149 153.701 43.6405 153.008 43.9627C153.76 44.1715 154.445 44.5658 154.999 45.1084C155.263 45.3793 155.47 45.7003 155.606 46.0519C155.742 46.4036 155.805 46.7787 155.79 47.1547C155.796 47.7352 155.692 48.3117 155.485 48.855ZM167.451 39.9645H161.84V42.3462H167.115V45.7511H161.84V48.092H167.451V51.5893H157.423V36.2758H167.451V39.9645ZM177.235 40.0591V51.5893H172.823V40.0591H169.082V36.2758H180.976V40.0591H177.235Z" fill="white"/>
</g>
<defs>
<clipPath id="clip0_176_18">
<rect width="203" height="85" fill="white"/>
</clipPath>
</defs>
</svg>
